<svg width="281" height="359" viewBox="0 0 281 359" fill="none" xmlns="http://www.w3.org/2000/svg">
<rect width="280.292" height="359" fill="white"/>
<rect x="84.8381" y="76.7293" width="11.439" height="49.5688" rx="5.71948" transform="rotate(-2 84.8381 76.7293)" fill="#F18F8F"/>
<rect x="52.0464" y="76.3301" width="11.439" height="49.5688" rx="5.71948" fill="#F18F8F"/>
<path d="M52.4273 84.6324C51.3419 81.805 52.5972 78.5917 55.2864 77.1988V77.1988C55.6658 77.0023 56.0719 76.8481 56.4864 76.7446V76.7446C59.1777 76.0726 61.9475 77.5138 62.9416 80.1035L80.3616 125.484C81.4936 128.433 80.0207 131.742 77.0717 132.874V132.874C74.1227 134.006 70.8145 132.533 69.6825 129.584L52.4273 84.6324Z" fill="#54B185"/>
<rect x="87.1517" y="75.3054" width="11.439" height="59.1876" rx="5.71948" transform="rotate(19 87.1517 75.3054)" fill="#54B185"/>
</svg>
